<svg width="198" height="99" xmlns="http://www.w3.org/2000/svg" xmlns:svg="http://www.w3.org/2000/svg">
 <metadata id="metadata327">image/svg+xml</metadata>
 <g>
  <title>Layer 1</title>
  <g id="g5">
   <circle fill="#ff0000" id="circle7" r="12" cy="16.609" cx="16.5"/>
   <polyline fill="#ff0000" stroke="#655100" stroke-width="2.3049" id="polyline9" points="21.332998275756836,12.744999885559082 15.667999267578125,20.570999145507812 11.654998779296875,16.658000946044922 " stroke-miterlimit="10"/>
  </g>
  <g id="g11">
   <circle fill="#ffffff" id="circle13" r="12" cy="49.465" cx="16.5"/>
   <polyline fill="#ffffff" stroke="#006468" stroke-width="2.3049" id="polyline15" points="21.332998275756836,45.60100173950195 15.667999267578125,53.426998138427734 11.654998779296875,49.513999938964844 " stroke-miterlimit="10"/>
  </g>
  <circle fill="#ffaa56" id="circle19" r="12" cy="82.477" cx="16.5"/>
  <path fill="#ffaa56" stroke="#006468" stroke-width="2.3049" stroke-dasharray="null" stroke-linejoin="null" stroke-linecap="null" d="m21.333,78.612l-5.665,7.826l-4.013,-3.913" id="polyline21"/>
  <circle fill="#ff0000" id="circle25" r="12" cy="16.609" cx="49.5"/>
  <polygon fill="#655100" id="polygon27" points="45.150997161865234,15.312999725341797 49.045997619628906,15.312999725341797 49.045997619628906,11.529999732971191 54.439998626708984,16.875 49.06999969482422,22.2450008392334 49.06999969482422,18.562999725341797 45.150997161865234,18.538999557495117 "/>
  <g id="g29">
   <circle fill="#ffffff" id="circle31" r="12" cy="49.465" cx="49.5"/>
   <polygon fill="#006468" id="polygon33" points="45.150997161865234,48.16899871826172 49.045997619628906,48.16899871826172 49.045997619628906,44.38600158691406 54.439998626708984,49.73099899291992 49.06999969482422,55.10100173950195 49.06999969482422,51.41899871826172 45.150997161865234,51.39400100708008 "/>
  </g>
  <circle fill="#56ff56" id="circle37" r="12" cy="82.477" cx="49.5"/>
  <polygon fill="#006468" id="polygon39" points="45.150997161865234,81.18000030517578 49.045997619628906,81.18000030517578 49.045997619628906,77.39700317382812 54.439998626708984,82.74299621582031 49.06999969482422,88.11299896240234 49.06999969482422,84.43000030517578 45.150997161865234,84.40599822998047 "/>
  <g id="g41">
   <rect fill="#ffcc00" id="rect43" height="21" width="21" y="6.109" x="105"/>
   <polygon fill="#655100" id="polygon45" points="113.89600372314453,19.08300018310547 113.89600372314453,15.116000175476074 110.04199981689453,15.116000175476074 115.48799896240234,9.621000289916992 120.95800018310547,15.090999603271484 117.20700073242188,15.090999603271484 117.18199920654297,19.08300018310547 "/>
   <rect fill="#655100" id="rect47" height="1" width="1" y="22.193" x="109.967"/>
   <rect fill="#655100" id="rect49" height="1" width="1" y="22.193" x="111.974"/>
   <rect fill="#655100" id="rect51" height="1" width="1" y="22.193" x="113.973"/>
   <rect fill="#655100" id="rect53" height="1" width="1" y="22.193" x="115.981"/>
   <rect fill="#655100" id="rect55" height="1" width="1" y="22.193" x="117.98"/>
   <rect fill="#655100" id="rect57" height="1" width="1" y="22.193" x="119.987"/>
  </g>
  <g id="g59">
   <rect fill="#ffcc00" id="rect61" height="21" width="21" y="6.109" x="138"/>
   <polygon fill="#655100" id="polygon63" points="150.10398864746094,9.621000289916992 150.10398864746094,13.588000297546387 153.95799255371094,13.588000297546387 148.51199340820312,19.08300018310547 143.0419921875,13.61199951171875 146.79299926757812,13.61299991607666 146.8179931640625,9.621000289916992 "/>
   <rect fill="#655100" id="rect65" height="1" width="1" y="22.193" x="142.96598"/>
   <rect fill="#655100" id="rect67" height="1" width="1" y="22.193" x="144.974"/>
   <rect fill="#655100" id="rect69" height="1" width="1" y="22.193" x="146.97299"/>
   <rect fill="#655100" id="rect71" height="1" width="1" y="22.193" x="148.98"/>
   <rect fill="#655100" id="rect73" height="1" width="1" y="22.193" x="150.98"/>
   <rect fill="#655100" id="rect75" height="1" width="1" y="22.193" x="152.987"/>
  </g>
  <g id="g77">
   <rect fill="#ffffff" id="rect79" height="21" width="21" y="38.965" x="105"/>
   <polygon fill="#006468" id="polygon81" points="113.89600372314453,51.93899917602539 113.89600372314453,47.97100067138672 110.04199981689453,47.97100067138672 115.48799896240234,42.47600173950195 120.95800018310547,47.946998596191406 117.20700073242188,47.946998596191406 117.18199920654297,51.93899917602539 "/>
   <rect fill="#006468" id="rect83" height="1" width="1" y="55.049" x="109.967"/>
   <rect fill="#006468" id="rect85" height="1" width="1" y="55.049" x="111.974"/>
   <rect fill="#006468" id="rect87" height="1" width="1" y="55.049" x="113.973"/>
   <rect fill="#006468" id="rect89" height="1" width="1" y="55.049" x="115.981"/>
   <rect fill="#006468" id="rect91" height="1" width="1" y="55.049" x="117.98"/>
   <rect fill="#006468" id="rect93" height="1" width="1" y="55.049" x="119.987"/>
  </g>
  <g id="g95">
   <rect fill="#ffffff" id="rect97" height="21" width="21" y="38.965" x="138"/>
   <polygon fill="#006468" id="polygon99" points="150.10398864746094,42.47600173950195 150.10398864746094,46.444000244140625 153.95799255371094,46.444000244140625 148.51199340820312,51.93899917602539 143.0419921875,46.46799850463867 146.79299926757812,46.46799850463867 146.8179931640625,42.47700119018555 "/>
   <rect fill="#006468" id="rect101" height="1" width="1" y="55.049" x="142.96598"/>
   <rect fill="#006468" id="rect103" height="1" width="1" y="55.049" x="144.974"/>
   <rect fill="#006468" id="rect105" height="1" width="1" y="55.049" x="146.97299"/>
   <rect fill="#006468" id="rect107" height="1" width="1" y="55.049" x="148.98"/>
   <rect fill="#006468" id="rect109" height="1" width="1" y="55.049" x="150.98"/>
   <rect fill="#006468" id="rect111" height="1" width="1" y="55.049" x="152.987"/>
  </g>
  <rect fill="#56aaff" id="rect115" height="21" width="21" y="71.977" x="105"/>
  <polygon fill="#006468" id="polygon117" points="113.89600372314453,84.94999694824219 113.89600372314453,80.98300170898438 110.04199981689453,80.98300170898438 115.48799896240234,75.48799896240234 120.95800018310547,80.95899963378906 117.20700073242188,80.95800018310547 117.18199920654297,84.94999694824219 "/>
  <rect fill="#006468" id="rect119" height="1" width="1" y="88.061" x="109.967"/>
  <rect fill="#006468" id="rect121" height="1" width="1" y="88.061" x="111.974"/>
  <rect fill="#006468" id="rect123" height="1" width="1" y="88.061" x="113.973"/>
  <rect fill="#006468" id="rect125" height="1" width="1" y="88.061" x="115.981"/>
  <rect fill="#006468" id="rect127" height="1" width="1" y="88.061" x="117.98"/>
  <rect fill="#006468" id="rect129" height="1" width="1" y="88.061" x="119.987"/>
  <rect fill="#56aaff" id="rect133" height="21" width="21" y="71.977" x="138"/>
  <polygon fill="#006468" id="polygon135" points="150.10398864746094,75.48799896240234 150.10398864746094,79.45500183105469 153.95799255371094,79.45500183105469 148.51199340820312,84.94999694824219 143.0419921875,79.4800033569336 146.79299926757812,79.4800033569336 146.8179931640625,75.48799896240234 "/>
  <rect fill="#006468" id="rect137" height="1" width="1" y="88.061" x="142.96598"/>
  <rect fill="#006468" id="rect139" height="1" width="1" y="88.061" x="144.974"/>
  <rect fill="#006468" id="rect141" height="1" width="1" y="88.061" x="146.97299"/>
  <rect fill="#006468" id="rect143" height="1" width="1" y="88.061" x="148.98"/>
  <rect fill="#006468" id="rect145" height="1" width="1" y="88.061" x="150.98"/>
  <rect fill="#006468" id="rect147" height="1" width="1" y="88.061" x="152.987"/>
  <g id="g149">
   <path fill="#655100" id="path151" d="m87.042,22.097"/>
   <rect fill="#ffcc00" id="rect153" height="21" width="21" y="6.109" x="72"/>
   <polygon fill="#655100" id="polygon155" points="83.03700256347656,10.093999862670898 84.03800201416016,10.093999862670898 88.01799774169922,14.079000473022461 88.01799774169922,15.057000160217285 87.04199981689453,15.057000160217285 83.03700256347656,15.057000160217285 "/>
   <polygon fill="#655100" id="polygon157" points="78.0009994506836,11.093000411987305 78.0009994506836,22.097000122070312 87.04199981689453,22.097000122070312 87.04199981689453,14.869999885559082 88.01799774169922,14.869999885559082 88.01799774169922,23.134000778198242 76.99600219726562,23.134000778198242 76.99600219726562,10.093999862670898 83.15899658203125,10.093999862670898 83.16500091552734,11.093000411987305 "/>
   <rect fill="#655100" id="rect159" height="0.996" width="0.995" y="12.111" x="78.996"/>
   <rect fill="#655100" id="rect161" height="0.996" width="0.995" y="12.111" x="80.992"/>
   <rect fill="#655100" id="rect163" height="0.996" width="0.995" y="14.103" x="78.996"/>
   <rect fill="#655100" id="rect165" height="0.996" width="0.995" y="14.103" x="80.992"/>
   <rect fill="#655100" id="rect167" height="0.996" width="0.995" y="16.116" x="78.996"/>
   <rect fill="#655100" id="rect169" height="0.996" width="0.995" y="16.116" x="80.992"/>
   <rect fill="#655100" id="rect171" height="0.996" width="0.995" y="16.116" x="83"/>
   <rect fill="#655100" id="rect173" height="0.996" width="0.995" y="16.116" x="84.997"/>
   <rect fill="#655100" id="rect175" height="0.996" width="0.995" y="18.118" x="78.996"/>
   <rect fill="#655100" id="rect177" height="0.996" width="0.995" y="18.118" x="80.992"/>
   <rect fill="#655100" id="rect179" height="0.996" width="0.995" y="20.132" x="78.996"/>
   <rect fill="#655100" id="rect181" height="0.996" width="0.995" y="20.132" x="80.992"/>
   <rect fill="#655100" id="rect183" height="0.996" width="0.995" y="18.118" x="83"/>
   <rect fill="#655100" id="rect185" height="0.996" width="0.995" y="18.118" x="84.997"/>
   <rect fill="#655100" id="rect187" height="0.996" width="0.995" y="20.132" x="83"/>
   <rect fill="#655100" id="rect189" height="0.996" width="0.995" y="20.132" x="84.997"/>
  </g>
  <g id="g191">
   <path fill="#006468" id="path193" d="m87.042,54.953"/>
   <rect fill="#ffffff" id="rect195" height="21" width="21" y="38.965" x="72"/>
   <polygon fill="#006468" id="polygon197" points="83.03700256347656,42.95000076293945 84.03800201416016,42.95000076293945 88.01799774169922,46.935001373291016 88.01799774169922,47.9119987487793 87.04199981689453,47.9119987487793 83.03700256347656,47.9119987487793 "/>
   <polygon fill="#006468" id="polygon199" points="78.0009994506836,43.94900131225586 78.0009994506836,54.952999114990234 87.04199981689453,54.952999114990234 87.04199981689453,47.72600173950195 88.01799774169922,47.72600173950195 88.01799774169922,55.9900016784668 76.99600219726562,55.9900016784668 76.99600219726562,42.95000076293945 83.18299865722656,42.95000076293945 83.19599914550781,43.95100021362305 "/>
   <rect fill="#006468" id="rect201" height="0.996" width="0.995" y="44.967" x="78.996"/>
   <rect fill="#006468" id="rect203" height="0.996" width="0.995" y="44.967" x="80.992"/>
   <rect fill="#006468" id="rect205" height="0.996" width="0.995" y="46.959" x="78.996"/>
   <rect fill="#006468" id="rect207" height="0.996" width="0.995" y="46.959" x="80.992"/>
   <rect fill="#006468" id="rect209" height="0.996" width="0.995" y="48.972" x="78.996"/>
   <rect fill="#006468" id="rect211" height="0.996" width="0.995" y="48.972" x="80.992"/>
   <rect fill="#006468" id="rect213" height="0.996" width="0.995" y="48.972" x="83"/>
   <rect fill="#006468" id="rect215" height="0.996" width="0.995" y="48.972" x="84.997"/>
   <rect fill="#006468" id="rect217" height="0.996" width="0.995" y="50.974" x="78.996"/>
   <rect fill="#006468" id="rect219" height="0.996" width="0.995" y="50.974" x="80.992"/>
   <rect fill="#006468" id="rect221" height="0.996" width="0.995" y="52.987" x="78.996"/>
   <rect fill="#006468" id="rect223" height="0.996" width="0.995" y="52.987" x="80.992"/>
   <rect fill="#006468" id="rect225" height="0.996" width="0.995" y="50.974" x="83"/>
   <rect fill="#006468" id="rect227" height="0.996" width="0.995" y="50.974" x="84.997"/>
   <rect fill="#006468" id="rect229" height="0.996" width="0.995" y="52.987" x="83"/>
   <rect fill="#006468" id="rect231" height="0.996" width="0.995" y="52.987" x="84.997"/>
  </g>
  <path fill="#006468" id="path235" d="m87.042,87.965"/>
  <rect fill="#56aaff" id="rect237" height="21" width="21" y="71.977" x="72"/>
  <polygon fill="#006468" id="polygon239" points="83.03700256347656,75.96099853515625 84.03800201416016,75.96099853515625 88.01799774169922,79.94599914550781 88.01799774169922,80.92400360107422 87.04199981689453,80.92400360107422 83.03700256347656,80.92400360107422 "/>
  <polygon fill="#006468" id="polygon241" points="78.0009994506836,76.96099853515625 78.0009994506836,87.96499633789062 87.04199981689453,87.96499633789062 87.04199981689453,80.73799896240234 88.01799774169922,80.73799896240234 88.01799774169922,89.00199890136719 76.99600219726562,89.00199890136719 76.99600219726562,75.96099853515625 83.18299865722656,75.96099853515625 83.19599914550781,76.96299743652344 "/>
  <rect fill="#006468" id="rect243" height="0.996" width="0.995" y="77.978" x="78.996"/>
  <rect fill="#006468" id="rect245" height="0.996" width="0.995" y="77.978" x="80.992"/>
  <rect fill="#006468" id="rect247" height="0.996" width="0.995" y="79.97" x="78.996"/>
  <rect fill="#006468" id="rect249" height="0.996" width="0.995" y="79.97" x="80.992"/>
  <rect fill="#006468" id="rect251" height="0.996" width="0.995" y="81.984" x="78.996"/>
  <rect fill="#006468" id="rect253" height="0.996" width="0.995" y="81.984" x="80.992"/>
  <rect fill="#006468" id="rect255" height="0.996" width="0.995" y="81.984" x="83"/>
  <rect fill="#006468" id="rect257" height="0.996" width="0.995" y="81.984" x="84.997"/>
  <rect fill="#006468" id="rect259" height="0.996" width="0.995" y="83.986" x="78.996"/>
  <rect fill="#006468" id="rect261" height="0.996" width="0.995" y="83.986" x="80.992"/>
  <rect fill="#006468" id="rect263" height="0.996" width="0.995" y="85.999" x="78.996"/>
  <rect fill="#006468" id="rect265" height="0.996" width="0.995" y="85.999" x="80.992"/>
  <rect fill="#006468" id="rect267" height="0.996" width="0.995" y="83.986" x="83"/>
  <rect fill="#006468" id="rect269" height="0.996" width="0.995" y="83.986" x="84.997"/>
  <rect fill="#006468" id="rect271" height="0.996" width="0.995" y="85.999" x="83"/>
  <rect fill="#006468" id="rect273" height="0.996" width="0.995" y="85.999" x="84.997"/>
  <g id="g275">
   <rect fill="#ffcc00" id="rect277" height="21" width="21" y="6.109" x="171"/>
   <rect fill="#655100" id="rect279" height="0.998" width="0.999" y="16.101" x="186.991"/>
   <rect fill="#655100" id="rect281" height="0.998" width="0.999" y="16.101" x="188.997"/>
   <rect fill="#655100" id="rect283" height="0.998" width="0.999" y="16.101" x="174.00499"/>
   <circle fill="none" stroke="#655100" stroke-width="1.9544" id="circle285" r="4.09" cy="16.101" cx="180.97499" stroke-miterlimit="10"/>
   <rect fill="#655100" id="rect287" height="4.423" width="2.68" transform="matrix(0.6915,0.7224,-0.7224,0.6915,69.5827,-121.6599) " y="19.02613" x="175.32245"/>
   <rect fill="#655100" id="rect289" height="1.996" width="2.028" y="15.103" x="179.961"/>
  </g>
  <g id="g291">
   <rect fill="#ffffff" id="rect293" height="21" width="21" y="38.965" x="171"/>
   <rect fill="#006468" id="rect295" height="0.998" width="0.999" y="48.957" x="186.991"/>
   <rect fill="#006468" id="rect297" height="0.998" width="0.999" y="48.957" x="188.997"/>
   <rect fill="#006468" id="rect299" height="0.998" width="0.999" y="48.957" x="174.00499"/>
   <circle fill="none" stroke="#006468" stroke-width="1.9544" id="circle301" r="4.09" cy="48.957" cx="180.97499" stroke-miterlimit="10"/>
   <rect fill="#006468" id="rect303" height="4.423" width="2.68" transform="matrix(0.6915,0.7224,-0.7224,0.6915,93.3163,-111.5246) " y="51.88213" x="175.32245"/>
   <rect fill="#006468" id="rect305" height="1.996" width="2.028" y="47.959" x="179.961"/>
  </g>
  <rect fill="#56aaff" id="rect309" height="21" width="21" y="71.977" x="171"/>
  <rect fill="#006468" id="rect311" height="0.998" width="0.999" y="81.969" x="186.991"/>
  <rect fill="#006468" id="rect313" height="0.998" width="0.999" y="81.969" x="188.997"/>
  <rect fill="#006468" id="rect315" height="0.998" width="0.999" y="81.969" x="174.00499"/>
  <circle fill="none" stroke="#006468" stroke-width="1.9544" id="circle317" r="4.09" cy="81.969" cx="180.97499" stroke-miterlimit="10"/>
  <rect fill="#006468" id="rect319" height="4.423" width="2.68" transform="matrix(0.6915,0.7224,-0.7224,0.6915,117.1625,-101.3412) " y="84.89413" x="175.32245"/>
  <rect fill="#006468" id="rect321" height="1.996" width="2.028" y="80.97" x="179.961"/>
 </g>
</svg>